<?xml version="1.0" encoding="utf-8"?>
<!-- Generator: Adobe Illustrator 24.1.1, SVG Export Plug-In . SVG Version: 6.00 Build 0)  -->
<svg version="1.1" id="Layer_1" xmlns="http://www.w3.org/2000/svg" xmlns:xlink="http://www.w3.org/1999/xlink" x="0px" y="0px"
	 viewBox="0 0 512 512" style="enable-background:new 0 0 512 512;" xml:space="preserve">
<g>
	<path d="M390.5,398.8c81,0,121.5-27,121.5-81c0-44.5-25.6-72.8-76.9-85l-38.2-8c-21.7-5.4-32.5-16.9-32.5-34.4
		c0-20.3,13.5-30.4,40.5-30.4c29.7,0,45.2,11.4,46.5,34.3l58.6-6.1c-3.9-49.9-37.9-74.9-101.1-74.9c-68.9,0-103.3,28.4-103.3,85.2
		c0,40.4,22.3,66.1,66.8,76.8l40.5,8.1c27,6.7,40.5,18.9,40.5,36.5c0,21.5-21,32.4-62.9,32.4c-51.1,0-85-25-101.1-74.9l-20.4-58.8
		c-12.1-39.1-27.2-66.4-45.5-81.9c-18.1-15.4-46.7-23.3-86-23.3c-36.5,0-68.5,13.5-96.1,40.6C13.9,180.8,0,216.6,0,261
		c0,41.8,13.1,75.2,39.5,100.2c26.4,25,57.6,37.5,94.1,37.5c36.5,0,65.5-8.8,87-26.3l-18.1-50.7c-18.9,19-41.3,28.4-66.9,28.4
		c-21.5,0-40.1-8.5-55.6-25.4C64.5,308,56.6,286,56.6,259c0-33.7,8.4-58.3,25.3-73.8c17-15.5,36.1-23.2,57.7-23.2
		c23,0,39.4,6,49.7,18.1c10.1,12.2,19.1,31.1,27.2,56.7l18.3,58.7C256.5,364.3,308.4,398.8,390.5,398.8"/>
</g>
</svg>
